<?xml version="1.0" encoding="utf-8"?>
<!-- Generator: Adobe Illustrator 23.0.6, SVG Export Plug-In . SVG Version: 6.00 Build 0)  -->
<svg version="1.1" id="Layer_1" xmlns="http://www.w3.org/2000/svg" xmlns:xlink="http://www.w3.org/1999/xlink" x="0px" y="0px"
	 viewBox="0 0 433.17 435.23" style="enable-background:new 0 0 433.17 435.23;" xml:space="preserve">
<style type="text/css">
	.st0{fill:#FF4438;}
</style>
<g>
	<path class="st0" d="M194.37,386.78c2.48,0.41,5.11,0.77,7.85,1.06c6.04-8.13,18.81-30.24,23.42-76.18l-13.5-1.35
		c-5.41,53.94-22.37,71.4-22.54,71.57l4.73,4.86L194.37,386.78z"/>
	<path class="st0" d="M229.48,352.57c0.03,10.9-0.27,23.23-1.14,36.14c4.67-0.01,9.53-0.4,14.31-1.01
		c0.34-6.35,1.84-39.34-1.19-78.05l-13.54,0.96C229.29,327.95,229.67,341.7,229.48,352.57z"/>
	<g>
		<path class="st0" d="M216.59,397.89c-99.4,0-180.28-80.87-180.28-180.28S117.18,37.34,216.59,37.34s180.28,80.87,180.28,180.28
			S315.99,397.89,216.59,397.89z M216.59,51c-91.87,0-166.62,74.74-166.62,166.62s74.74,166.62,166.62,166.62
			S383.2,309.49,383.2,217.61S308.46,51,216.59,51z"/>
	</g>
	<path class="st0" d="M216.59,217.61"/>
	<path class="st0" d="M148,93.1"/>
	<path class="st0" d="M91.54,286.31c0-4.28,2.02-8.72,5.23-13.09c-0.34-0.2-0.68-0.4-0.99-0.61l0,0
		c-15.31-10.39-17.02-18.85-15.07-33.86c0.8-6.16-0.54-13.21-1.95-20.67c-3.28-17.42-4.54-29.28,7.35-35.13
		c1.96-0.96,3.96-1.77,5.98-2.46c-2.9-4.95-4.38-9.45-5.1-13.11c-2.37,0.84-4.74,1.82-7.08,2.96
		c-22.38,10.99-18.09,33.73-14.96,50.33l0.04,0.21c1.17,6.26,2.28,12.17,1.77,16.07c-2.47,19.18,0.19,33.07,21.11,47.29
		C88.88,284.91,90.09,285.62,91.54,286.31L91.54,286.31z"/>
	<path class="st0" d="M155.4,93.1c1.42,0,3.89,1.92,6.95,4.92c2.8-5.6,6.98-10.09,12.55-13.42c1.41-0.59,11.56-4.61,21.24-2.41
		c10.62,2.43,17.69,0.26,24.55-1.84l0.45-0.13c2.87-0.86,5.58-1.67,8.71-2.18c2.65-0.43,9.34,0.35,15.68,6.41
		c2.48,2.35,5.04,5.66,7.19,10.28c4.67-2.35,9.13-4.12,12.91-5.41c-2.86-6.36-6.35-11-9.72-14.37c-0.11-0.11-0.23-0.22-0.35-0.34
		c-0.11-0.1-0.21-0.2-0.33-0.32c-9.65-9.24-20.92-11.23-27.64-10.12c-4.32,0.7-8.02,1.84-11,2.75c-6,1.83-10.34,3.16-17.32,1.58
		c-15.36-3.51-29.89,3.17-30.46,3.43c-0.23,0.09-0.44,0.2-0.64,0.32c-9.85,5.74-16.72,13.97-20.55,24.53
		C150.58,94.61,153.36,93.1,155.4,93.1z"/>
	<path class="st0" d="M367.18,217.61c-11.8-26.13,3.08-27.86-4.56-47.74c-1.94-3.81-4.55-7.44-7.97-10.65l-0.07-0.07
		c-3.52-3.29-8.25-6.47-14.52-8.69c-1.44,3.94-3.61,8.31-6.15,12.79c4.37,1.33,8.09,3.38,11.08,6.17
		c8.71,8.13,9.03,19.92,7.11,25.86c-3.15,9.72-0.22,17.49,2.37,24.35c3.51,9.27,6.04,15.96-5.25,28.85
		c-1.75,1.99-4.67,4.82-8.92,7.41c4.03,7.13,6.06,12.71,6.11,12.84c5-2.89,9.49-6.56,13.38-10.99c4.01-4.58,8.21-10.2,10.32-17.07
		C371.4,233.66,370.91,225.87,367.18,217.61z"/>
	<g>
		<path class="st0" d="M244.5,167.19c-12.65-2.27-30.65,0.84-39.1,11.12c-1.26,1.54-2.49,3.46-3.35,5.75
			c-3.75-4.75-8.36-9.07-13.63-11.51c-5.27-2.45-10.68-2.74-15.63-0.83c-5.56,2.14-9.52,6.1-11.46,11.45
			c-4.25,11.73,2.19,27.38,8.35,38.45c4.38,7.87,10.3,12.69,16.3,15.51c-6.11,3.49-10.25,7.53-12.2,12.03
			c-1.97,4.5-1.64,9.14,0.96,13.44c2.62,4.34,8.04,7.13,15.68,8.08c12.61,1.55,30.83-2.07,41.27-11.99
			c2.03-1.93,3.61-3.88,4.84-5.81c4.92,6.2,11.38,10.71,19.2,8.45c7.82-2.27,12.94-12.4,12.94-25.12c0-0.95-0.03-1.93-0.08-2.91
			c-0.76-12.57-7.01-27.76-21.69-34.77c9.89-6.58,12.64-12.8,12.64-17.67c0-1.48-0.25-2.84-0.64-4.04
			C257.36,172.01,252.25,168.58,244.5,167.19z M222.86,250.66c-7.14,6.81-21.57,9.79-30.83,8.64c-4.56-0.56-6.27-1.86-6.54-2.31
			c-0.74-1.22-0.83-2.27-0.29-3.5c1.51-3.46,8.12-8.53,22.14-12.4c0.28-0.08,0.55-0.2,0.81-0.31c2.6,0.95,5.39,1.5,8.31,1.5
			c4.07,0,7.91-1.03,11.28-2.81C228.1,242.44,227.31,246.42,222.86,250.66z M256.67,234.04c0.55,9.18-2.5,15.19-4.22,15.68
			c-3.95,1.15-10.89-9.36-14.84-19.89c1.95-3.49,3.08-7.51,3.08-11.78c0-3.5-0.76-6.82-2.11-9.83
			C245.3,210.49,255.64,216.77,256.67,234.04z M228.57,218.05c0,6.67-5.44,12.11-12.11,12.11c-6.68,0-12.12-5.44-12.12-12.11
			c0-6.68,5.44-12.12,12.12-12.12C223.14,205.93,228.57,211.37,228.57,218.05z M198.7,201.63c-4.01,4.32-6.47,10.08-6.47,16.42
			c0,3.3,0.67,6.46,1.87,9.32c-4.67-1.46-9.98-4.69-13.85-11.64c-6.77-12.16-9.59-22.79-7.54-28.43c0.74-2.07,2.11-3.38,4.42-4.28
			c1.19-0.46,3.13-0.9,6.18,0.51C189.33,186.32,195.51,194.52,198.7,201.63z M247.9,180.12c1.29,4.67-10.7,12.17-19.57,15.59
			c-0.42,0.17-0.81,0.38-1.17,0.63c-3.22-1.6-6.85-2.52-10.69-2.52c-1.3,0-2.56,0.13-3.8,0.33c-1.34-5.65,0.89-9.81,6.83-12.92
			C230.47,175.48,245.86,177.36,247.9,180.12z"/>
		<path class="st0" d="M243,89.97c-12.77,9.73-20.98,23.26-24.97,31.02c-3.68-1.81-8.03-2.59-12.94-2.31
			c-3.42,0.18-6.84,1.03-10.19,2.55c-6.62-9.81-20.4-26.52-41.16-33.6c-23.59-8.05-36.64,11.06-46.17,25.01l-0.12,0.17
			c-3.6,5.25-6.99,10.22-10.11,12.61c-15.31,11.82-23.25,23.52-18.51,48.36c1.56,8.14,8.97,24.3,41.04,41.43
			c-1.3,3.2-2.03,7-2.18,11.31c-0.01,0.32-0.01,0.62-0.01,0.93c0,3.82,0.77,7.64,2.29,11.37c-16.79,10.32-36.12,27.26-34.63,50
			c1.2,18.13,15.78,32.1,22.95,35.23c5.95,2.58,10.8,8.04,12.21,9.74c5.65,9.02,13.86,16.12,23.12,20
			c11.24,4.72,23.35,4.51,35.02-0.61c18.56-8.14,31.15-29.92,36.09-39.85c2.1,1.01,4.39,1.72,6.78,2.11
			c4.18,0.8,8.35,0.67,12.39-0.39c2.36,3.7,6.12,8.96,11.24,14.09c12.91,12.98,28.37,19.27,44.7,18.19
			c6.07-0.4,13.01-1.41,19.37-4.77c5.87-4.04,11.03-9.9,14.22-18.37c10.13-26.82,21.88-17.52,30.53-36.98
			c1.32-4.06,2.04-8.48,1.9-13.17l0-0.1c-0.48-14.14-8.96-34.83-46.49-53.46c2.56-3.75,3.85-8.25,3.85-13.4
			c0-1.16-0.07-2.39-0.22-3.64c-0.14-1.28-0.4-2.57-0.77-3.94c27.58-22.4,33.39-42.2,33.39-54.89c0-0.16,0-0.32-0.01-0.48
			c0-0.15-0.01-0.29-0.01-0.46c-0.29-13.36-6.86-22.73-12.39-26.7c-3.55-2.56-6.97-4.38-9.73-5.83c-5.54-2.95-9.55-5.08-13.36-11.13
			c-8.38-13.35-23.38-18.9-23.96-19.11c-0.22-0.1-0.46-0.17-0.68-0.22C270.57,76.72,256.28,79.86,243,89.97z M108.11,190.91
			c-8.99-7.05-14.34-13.88-15.46-19.76v0c-3.48-18.17,1.29-25.36,13.29-34.6c4.92-3.79,8.96-9.72,13.24-15.99
			c10-14.64,17.5-23.91,30.04-19.64c17.46,5.96,29.44,21.37,34.19,28.42c-6.32,6.12-11.18,13.84-14.31,19.63
			c-1.16-0.83-2.39-1.52-3.67-2.07c-5.84-2.49-12.44-1.94-19.61,1.64c-0.39,0.2-0.78,0.44-1.14,0.71
			c-9.38,7.23-14.34,18.3-14.34,32.01c0,8.5,1.9,16.7,3.63,22.4c-1.26,0.23-2.52,0.58-3.74,1.07
			C126.23,202.74,116.84,197.76,108.11,190.91z M173.01,340.31L173.01,340.31c-17.39,7.63-33.01-1.68-40.8-14.33
			c-0.13-0.2-0.26-0.39-0.4-0.57c-0.31-0.4-7.67-9.81-17.9-14.27c-2.36-1.02-13.67-10.32-14.52-23.25
			c-0.84-12.59,8.91-25.47,28.19-37.24c2.87,3.24,6.42,6.45,10.55,9.56c3.17,2.38,6.68,4.66,10.42,6.8
			c-1.95,3.44-2.98,7.29-2.98,11.2c0,11.22,8,20.3,20.39,23.14c12.48,2.86,26.98-0.28,37.3-3.58c0.28,1.51,0.69,2.98,1.23,4.38
			c-0.1,0.19-0.21,0.39-0.31,0.61C204.05,303.06,191.81,332.06,173.01,340.31z M341.84,274.41c0.4,11.91-7.7,20.47-13.25,23.31
			c-9.1,4.65-12.52,12.21-15.55,18.89c-4.07,9.03-7.02,15.56-24.11,16.69c-7.56,0.5-26.72-0.95-42.49-24.82
			c8.06-6.46,14.02-15.89,17.76-23.09c4.39,2.75,9.74,3.56,15.9,2.38c0.47-0.09,0.92-0.22,1.33-0.39
			c8.43-3.42,18.48-11.8,18.48-32.33c0-0.01,0-0.02,0-0.02c0-9.25-2.09-18.6-3.96-25.09c0.12-0.04,0.23-0.08,0.35-0.11
			C325.12,242.66,341.29,258.49,341.84,274.41z M299.07,205.03c0.08,0.76,0.12,1.43,0.12,2.04c0,3.87-1.69,6.73-5.03,8.51
			c-0.54,0.17-1.04,0.4-1.51,0.69c-2.68,1.03-5.29,1.16-6.03,1.18c-2.3,0.04-4.44,1.21-5.72,3.13c-1.27,1.9-1.51,4.46-0.69,6.48
			c0.23,0.59,5.65,14.6,5.65,27.97c0,10.01-3.04,16.42-9.04,19.05c-5.19,0.77-6.85-1.54-7.31-3.58c-0.58-3.12-3.19-5.47-6.35-5.72
			c-3.16-0.25-6.11,1.67-7.17,4.64c-0.09,0.24-8.88,23.7-22.08,30.57c-3.27,1.7-6.57,2.25-9.79,1.61l-0.19,0.95l0.09-0.97
			c-0.06-0.01-0.11-0.02-0.15-0.03c-3.48-0.55-7.03-2.07-7.03-9.07c0-1.85,0.28-3.24,0.28-3.24c0.6-2.61-0.31-5.29-2.38-7
			c-2.04-1.67-4.91-2.06-7.35-0.97c-2.36,1.01-23.46,9.76-38.3,6.36c-5.93-1.36-9.47-4.89-9.47-9.44c0-2.95,1.54-5.74,4.02-7.28
			c2.2-1.36,3.49-3.9,3.3-6.48c-0.19-2.61-1.81-4.89-4.22-5.94c-4.65-2.01-12.38-6.27-18.84-11.63c-5.54-4.6-12.14-11.7-12.14-19.43
			l0-0.47c0.16-4.55,1.19-7.69,2.89-8.82c1.99-1.32,5.76-0.57,7.17-0.03c2.71,1.07,5.74,0.4,7.72-1.72
			c1.97-2.09,2.46-5.23,1.22-7.83c-0.65-1.42-6.36-14.29-6.36-27.31c0-9.06,2.8-15.93,8.32-20.45c2.98-1.4,5.39-1.74,7.15-1.01
			c2.65,1.09,3.95,4.66,3.95,4.65c0.87,2.85,3.47,4.84,6.46,4.95c2.98,0.11,5.71-1.69,6.8-4.47c1.43-3.66,5.27-11.79,10.63-19.03
			c4.31-5.82,10.95-12.83,18.13-13.22c3.44-0.18,5.95,0.45,7.47,1.88c2.35,2.22,2.7,6.46,2.7,8.79c0,1.6-0.17,2.73-0.17,2.73
			c-0.44,2.57,0.59,5.15,2.67,6.74c2.07,1.58,4.84,1.88,7.21,0.79c7.47-3.44,29.26-10.83,40.22-3.85c3.75,2.38,4.23,4.67,4.23,6.39
			c0,4.44-3.63,9.43-4.73,10.69l-0.07,0.07c-1.69,1.33-2.69,3.39-2.69,5.52c0,2.51,1.35,4.85,3.54,6.1c0.5,0.28,1.02,0.5,1.5,0.63
			C273.58,181.17,297.57,191.98,299.07,205.03z M281.54,94.15c1.41,0.58,11.44,4.91,16.72,13.32c5.79,9.23,12.33,12.7,18.66,16.06
			l0.41,0.22c2.64,1.42,5.13,2.76,7.7,4.61c2.18,1.57,6.35,6.85,6.55,15.62c0.26,9.42-4.18,24.46-26.26,43.01
			c-3.58-4.16-8.35-8.13-14.19-11.81c-3.27-2.06-6.84-4.01-10.61-5.81c2.3-4.56,3.7-9.55,3.7-13.21c0-5.21-1.86-12.6-10.74-18.25
			c-13.39-8.52-32.86-4.31-43.96-0.73c-0.3-1.65-0.74-3.24-1.31-4.74c2.22-4.87,7.99-16.32,16.94-25.6
			C256.41,95.17,268.65,90.9,281.54,94.15z"/>
	</g>
</g>
</svg>
